<svg width="38" height="36" viewBox="0 0 38 36" fill="none" xmlns="http://www.w3.org/2000/svg">
<g filter="url(#filter0_d_1901_268)">
<path d="M24.955 27.0542C19.9581 27.0542 15.9062 23.6792 15.9062 19.5204C15.9062 15.3579 19.9544 11.9829 24.9513 11.9829C29.9481 11.9829 34 15.3579 34 19.5204C34 21.7892 32.7812 23.8348 30.8763 25.2129C30.7703 25.2882 30.6912 25.3954 30.6507 25.519C30.6102 25.6425 30.6104 25.7758 30.6513 25.8992L31.06 27.4179C31.0853 27.4891 31.1035 27.5626 31.1144 27.6373C31.1125 27.7172 31.0799 27.7934 31.0233 27.85C30.9667 27.9065 30.8906 27.9391 30.8106 27.941C30.749 27.9387 30.6893 27.9192 30.6381 27.8848L28.6562 26.741C28.5111 26.6538 28.3456 26.606 28.1763 26.6023C28.0861 26.6028 27.9964 26.616 27.91 26.6417C26.9493 26.9174 25.9545 27.0563 24.955 27.0542ZM20.995 17.891C21.1091 18.0661 21.2665 18.2088 21.4519 18.3052C21.6374 18.4016 21.8446 18.4485 22.0534 18.4412C22.2623 18.434 22.4658 18.3729 22.6441 18.2639C22.8224 18.155 22.9696 18.0017 23.0713 17.8192C23.173 17.6366 23.2258 17.4308 23.2246 17.2218C23.2233 17.0128 23.1682 16.8077 23.0644 16.6263C22.9605 16.4449 22.8116 16.2934 22.6321 16.1865C22.4525 16.0796 22.2483 16.0208 22.0394 16.016C21.8801 16.0158 21.7223 16.047 21.5751 16.1079C21.4279 16.1688 21.2942 16.2582 21.1817 16.3709C21.0691 16.4836 20.98 16.6175 20.9193 16.7648C20.8586 16.9121 20.8276 17.0699 20.8281 17.2292C20.8162 17.4618 20.8751 17.6925 20.9969 17.891H20.995ZM27.055 17.8929C27.1697 18.068 27.3278 18.2103 27.5138 18.3061C27.6999 18.4019 27.9076 18.4478 28.1167 18.4394C28.3259 18.431 28.5292 18.3686 28.707 18.2582C28.8848 18.1478 29.031 17.9933 29.1313 17.8096C29.2316 17.6259 29.2825 17.4194 29.2793 17.2101C29.276 17.0009 29.2185 16.796 29.1125 16.6156C29.0065 16.4351 28.8556 16.2852 28.6744 16.1805C28.4932 16.0758 28.288 16.0197 28.0788 16.0179C27.7587 16.0184 27.4518 16.1458 27.2255 16.3721C26.9991 16.5985 26.8717 16.9053 26.8713 17.2254C26.8641 17.4613 26.9281 17.6939 27.055 17.8929Z" fill="#333333"/>
<path d="M4 12.7987C4 15.5269 5.46437 17.9831 7.75187 19.6538C7.87954 19.7435 7.97468 19.8723 8.02302 20.0207C8.07135 20.1691 8.0703 20.3291 8.02 20.4769L7.71813 21.6019L7.53063 22.3013C7.49807 22.3854 7.47786 22.4738 7.47062 22.5638C7.47038 22.6113 7.47957 22.6585 7.49766 22.7025C7.51576 22.7465 7.54241 22.7865 7.57606 22.8202C7.60971 22.8538 7.64971 22.8805 7.69372 22.8986C7.73774 22.9167 7.78491 22.9259 7.8325 22.9256C7.90562 22.9256 7.97687 22.9069 8.04063 22.8713L10.4181 21.4969C10.5929 21.3924 10.792 21.3355 10.9956 21.3319C11.1044 21.3319 11.2131 21.3488 11.3162 21.3787C12.3085 21.6635 13.3316 21.8271 14.3631 21.8662C14.1415 21.1041 14.0298 20.3143 14.0312 19.5206C14.0312 14.0156 19.2531 10.1081 24.9513 10.1081C25.045 10.1081 25.1388 10.1081 25.2325 10.1119C23.8506 6.42938 19.735 3.75 14.8675 3.75C8.8675 3.75 4 7.8 4 12.7987ZM12.685 9.88312C12.685 10.266 12.5329 10.6333 12.2621 10.904C11.9914 11.1748 11.6242 11.3269 11.2413 11.3269C10.8583 11.3269 10.4911 11.1748 10.2204 10.904C9.94961 10.6333 9.7975 10.266 9.7975 9.88312C9.7975 9.50022 9.94961 9.133 10.2204 8.86224C10.4911 8.59148 10.8583 8.43937 11.2413 8.43937C11.6242 8.43937 11.9914 8.59148 12.2621 8.86224C12.5329 9.133 12.685 9.50022 12.685 9.88312ZM19.9506 9.88312C19.9506 10.266 19.7985 10.6333 19.5278 10.904C19.257 11.1748 18.8898 11.3269 18.5069 11.3269C18.124 11.3269 17.7567 11.1748 17.486 10.904C17.2152 10.6333 17.0631 10.266 17.0631 9.88312C17.0631 9.50022 17.2152 9.133 17.486 8.86224C17.7567 8.59148 18.124 8.43937 18.5069 8.43937C18.8898 8.43937 19.257 8.59148 19.5278 8.86224C19.7985 9.133 19.9506 9.50022 19.9506 9.88312Z" fill="#333333"/>
</g>
<defs>
<filter id="filter0_d_1901_268" x="0" y="0" width="38" height="38" filterUnits="userSpaceOnUse" color-interpolation-filters="sRGB">
<feFlood flood-opacity="0" result="BackgroundImageFix"/>
<feColorMatrix in="SourceAlpha" type="matrix" values="0 0 0 0 0 0 0 0 0 0 0 0 0 0 0 0 0 0 127 0" result="hardAlpha"/>
<feOffset dy="4"/>
<feGaussianBlur stdDeviation="2"/>
<feComposite in2="hardAlpha" operator="out"/>
<feColorMatrix type="matrix" values="0 0 0 0 0 0 0 0 0 0 0 0 0 0 0 0 0 0 0.25 0"/>
<feBlend mode="normal" in2="BackgroundImageFix" result="effect1_dropShadow_1901_268"/>
<feBlend mode="normal" in="SourceGraphic" in2="effect1_dropShadow_1901_268" result="shape"/>
</filter>
</defs>
</svg>
