<svg width="68" height="68" viewBox="0 0 68 68" fill="none" xmlns="http://www.w3.org/2000/svg">
<g filter="url(#filter0_d_1901_365)">
<path fill-rule="evenodd" clip-rule="evenodd" d="M56.5037 5.50294C56.5037 5.00145 56.2237 4.46796 55.8237 4.20709C55.5333 4.01772 53.7667 4.0011 33.9897 4.0011C13.458 4.0011 12.1085 3.95433 11.8381 4.47168C11.7965 4.5512 11.7804 4.64406 11.7241 4.75246C11.3484 5.47544 11.4575 5.78456 13.0657 8.5545C16.1593 13.8826 17.8168 16.7665 17.8168 16.8205C17.8168 16.851 14.9417 16.8758 11.4278 16.8758C5.13888 16.8758 5.03349 16.88 4.70528 17.1368C4.30736 17.4483 4 18.0017 4 18.4064C4 18.678 4.76017 20.0668 7.16479 24.1882C7.68619 25.0819 8.84541 27.0787 9.74087 28.6256C10.6363 30.1724 12.3316 33.0974 13.5083 35.1254C14.685 37.1535 17.0169 41.1753 18.6901 44.0628C20.3634 46.9502 21.9992 49.7626 22.3251 50.3126C22.651 50.8626 23.4701 52.2733 24.1451 53.4476C25.4696 55.7514 25.7083 56 26.5953 56C26.9809 56 27.1992 55.9149 27.4776 55.6563C27.6811 55.4671 28.9025 53.4844 30.1917 51.2501C33.7376 45.1051 33.9466 44.7502 34.0173 44.7506C34.0534 44.7509 34.3647 45.2431 34.7093 45.8443C38.2912 52.0957 40.2423 55.3701 40.5558 55.6563C40.8492 55.924 41.0564 56 41.4937 56C42.3106 56 42.6105 55.6608 44.1451 53.0001C45.6882 50.3246 47.0443 47.9845 51.6006 40.1342C53.4134 37.011 56.0559 32.4549 57.473 30.0094C58.8901 27.564 60.789 24.2975 61.6928 22.7507C64.1024 18.6263 64.1117 18.6067 63.9325 18.0113C63.8511 17.7407 63.6114 17.3744 63.4002 17.1976L63.0161 16.8758H56.6062C51.5297 16.8758 50.2092 16.8433 50.2574 16.7196C50.3163 16.5686 51.1387 15.1401 54.7862 8.85287C55.988 6.78129 56.5037 5.77531 56.5037 5.50294ZM24.6623 14.4761C23.9024 13.1597 23.1524 11.8392 22.9957 11.5417L22.7107 11.0009H34.0291H45.3476L44.9279 11.7324C44.6972 12.1348 43.943 13.4541 43.2522 14.6641L41.9961 16.8643L34.0201 16.8669L26.044 16.8697L24.6623 14.4761ZM16.0633 25.4381C15.7382 24.8882 15.4039 24.3107 15.3202 24.1549L15.168 23.8717L18.5767 23.9049L21.9854 23.9382L25.9356 30.7403C28.3814 34.9519 29.8573 37.6161 29.8111 37.736C29.7225 37.9656 26.7344 43.1404 26.6025 43.2926C26.5524 43.3504 26.203 42.8723 25.826 42.2302C24.6304 40.1942 21.951 35.5864 19.2597 30.938C17.8267 28.4631 16.3884 25.9881 16.0633 25.4381ZM34.0414 30.4232C33.9642 30.4692 30.4988 24.5943 30.3084 24.0944C30.2301 23.8891 30.4577 23.8757 34.0201 23.8757C37.2408 23.8757 37.8049 23.9024 37.7469 24.0525C37.7094 24.1499 37.0153 25.3733 36.2045 26.7712C35.3937 28.1692 34.5943 29.5516 34.4279 29.8432C34.2616 30.1347 34.0876 30.3957 34.0414 30.4232ZM42.6199 29.8131C44.328 26.8569 45.8061 24.3117 45.9047 24.1569C46.0834 23.8768 46.0973 23.8757 49.4232 23.8757C52.535 23.8757 52.7567 23.8904 52.6791 24.0915C52.6019 24.2918 51.6405 25.9654 48.2076 31.8755C47.4689 33.1474 45.6931 36.2129 44.2613 38.6879C42.8296 41.1628 41.6148 43.2335 41.5616 43.2895C41.4654 43.3909 38.1651 37.8608 38.1651 37.598C38.1651 37.5219 38.4687 36.9485 38.8397 36.3238C39.2108 35.6991 40.9119 32.7692 42.6199 29.8131Z" fill="#EC1B2E"/>
</g>
<defs>
<filter id="filter0_d_1901_365" x="0" y="0" width="68" height="68" filterUnits="userSpaceOnUse" color-interpolation-filters="sRGB">
<feFlood flood-opacity="0" result="BackgroundImageFix"/>
<feColorMatrix in="SourceAlpha" type="matrix" values="0 0 0 0 0 0 0 0 0 0 0 0 0 0 0 0 0 0 127 0" result="hardAlpha"/>
<feOffset dy="4"/>
<feGaussianBlur stdDeviation="2"/>
<feComposite in2="hardAlpha" operator="out"/>
<feColorMatrix type="matrix" values="0 0 0 0 0 0 0 0 0 0 0 0 0 0 0 0 0 0 0.25 0"/>
<feBlend mode="normal" in2="BackgroundImageFix" result="effect1_dropShadow_1901_365"/>
<feBlend mode="normal" in="SourceGraphic" in2="effect1_dropShadow_1901_365" result="shape"/>
</filter>
</defs>
</svg>
